<svg width="7" height="6" viewBox="0 0 7 6" fill="none" xmlns="http://www.w3.org/2000/svg">
<path d="M5.89063 5.66671C5.76686 5.79047 5.59899 5.86 5.42396 5.86C5.24892 5.86 5.08105 5.79047 4.95728 5.66671L3.49923 4.00021L2.04118 5.66616C1.98008 5.72826 1.90728 5.77766 1.827 5.81149C1.74671 5.84532 1.66052 5.86292 1.57339 5.86328C1.48627 5.86363 1.39994 5.84673 1.31938 5.81356C1.23882 5.78038 1.16562 5.73158 1.10402 5.66997C1.04241 5.60837 0.99361 5.53517 0.960433 5.45461C0.927256 5.37405 0.910357 5.28772 0.910712 5.20059C0.911066 5.11347 0.928668 5.02728 0.9625 4.94699C0.996332 4.8667 1.04573 4.79391 1.10783 4.73281L2.62473 3.00031L1.10728 1.26671C1.04518 1.2056 0.995782 1.13281 0.96195 1.05252C0.928118 0.972234 0.910516 0.886042 0.910162 0.798918C0.909807 0.711794 0.926706 0.625462 0.959883 0.544901C0.99306 0.464341 1.04186 0.391146 1.10347 0.32954C1.16507 0.267934 1.23827 0.219134 1.31883 0.185957C1.39939 0.15278 1.48572 0.135881 1.57284 0.136236C1.65997 0.136591 1.74616 0.154192 1.82645 0.188024C1.90673 0.221856 1.97953 0.27125 2.04063 0.333356L3.49923 2.00041L4.95728 0.333356C5.01838 0.27125 5.09118 0.221856 5.17147 0.188024C5.25175 0.154192 5.33795 0.136591 5.42507 0.136236C5.51219 0.135881 5.59853 0.15278 5.67909 0.185957C5.75965 0.219134 5.83284 0.267934 5.89445 0.32954C5.95605 0.391146 6.00485 0.464341 6.03803 0.544901C6.07121 0.625462 6.08811 0.711794 6.08775 0.798918C6.0874 0.886042 6.0698 0.972234 6.03596 1.05252C6.00213 1.13281 5.95274 1.2056 5.89063 1.26671L4.37373 3.00031L5.89063 4.73281C5.952 4.7941 6.00068 4.86689 6.03389 4.94702C6.06711 5.02714 6.0842 5.11302 6.0842 5.19976C6.0842 5.28649 6.06711 5.37237 6.03389 5.4525C6.00068 5.53262 5.952 5.60541 5.89063 5.66671Z" fill="white"/>
</svg>
